<mxfile host="65bd71144e">
    <diagram id="xO4AFYRBtx373tVWvIWY" name="Page-1">
        <mxGraphModel dx="1302" dy="289" grid="1" gridSize="10" guides="1" tooltips="1" connect="1" arrows="1" fold="1" page="1" pageScale="1" pageWidth="850" pageHeight="1100" math="0" shadow="0">
            <root>
                <mxCell id="0"/>
                <mxCell id="1" parent="0"/>
                <mxCell id="22" style="edgeStyle=none;html=1;exitX=0.5;exitY=1;exitDx=0;exitDy=0;entryX=0.5;entryY=0;entryDx=0;entryDy=0;" edge="1" parent="1" source="2" target="5">
                    <mxGeometry relative="1" as="geometry"/>
                </mxCell>
                <mxCell id="2" value="funciton start" style="ellipse;whiteSpace=wrap;html=1;aspect=fixed;" vertex="1" parent="1">
                    <mxGeometry x="200" y="280" width="80" height="80" as="geometry"/>
                </mxCell>
                <mxCell id="21" style="edgeStyle=none;html=1;exitX=0.5;exitY=1;exitDx=0;exitDy=0;entryX=0.5;entryY=0;entryDx=0;entryDy=0;" edge="1" parent="1" source="3" target="2">
                    <mxGeometry relative="1" as="geometry"/>
                </mxCell>
                <mxCell id="3" value="sumoProduct() is called and two parameters (lists) are passed in" style="whiteSpace=wrap;html=1;" vertex="1" parent="1">
                    <mxGeometry x="180" y="180" width="120" height="70" as="geometry"/>
                </mxCell>
                <mxCell id="8" value="" style="edgeStyle=none;html=1;" edge="1" parent="1" source="5" target="7">
                    <mxGeometry relative="1" as="geometry"/>
                </mxCell>
                <mxCell id="5" value="enter for loop" style="whiteSpace=wrap;html=1;" vertex="1" parent="1">
                    <mxGeometry x="180" y="390" width="120" height="60" as="geometry"/>
                </mxCell>
                <mxCell id="10" value="true" style="edgeStyle=none;html=1;" edge="1" parent="1" source="7" target="9">
                    <mxGeometry relative="1" as="geometry"/>
                </mxCell>
                <mxCell id="15" value="false" style="edgeStyle=none;html=1;" edge="1" parent="1" source="7" target="14">
                    <mxGeometry relative="1" as="geometry"/>
                </mxCell>
                <mxCell id="7" value="condition: i is in the range of the length of one of the lists" style="whiteSpace=wrap;html=1;" vertex="1" parent="1">
                    <mxGeometry x="180" y="530" width="120" height="60" as="geometry"/>
                </mxCell>
                <mxCell id="12" value="" style="edgeStyle=none;html=1;" edge="1" parent="1" source="9" target="11">
                    <mxGeometry relative="1" as="geometry"/>
                </mxCell>
                <mxCell id="9" value="find the product of items at position i in both l1 and l2" style="whiteSpace=wrap;html=1;" vertex="1" parent="1">
                    <mxGeometry x="180" y="670" width="120" height="60" as="geometry"/>
                </mxCell>
                <mxCell id="13" value="reenter loop if condition true" style="edgeStyle=none;html=1;exitX=1;exitY=0.5;exitDx=0;exitDy=0;entryX=1;entryY=0.5;entryDx=0;entryDy=0;" edge="1" parent="1" source="11" target="7">
                    <mxGeometry x="-0.5139" y="2" relative="1" as="geometry">
                        <Array as="points">
                            <mxPoint x="370" y="690"/>
                        </Array>
                        <mxPoint as="offset"/>
                    </mxGeometry>
                </mxCell>
                <mxCell id="11" value="add new product to the sum" style="whiteSpace=wrap;html=1;" vertex="1" parent="1">
                    <mxGeometry x="180" y="810" width="120" height="60" as="geometry"/>
                </mxCell>
                <mxCell id="17" value="" style="edgeStyle=none;html=1;" edge="1" parent="1" source="14" target="16">
                    <mxGeometry relative="1" as="geometry"/>
                </mxCell>
                <mxCell id="14" value="exit loop" style="whiteSpace=wrap;html=1;" vertex="1" parent="1">
                    <mxGeometry x="-20" y="530" width="120" height="60" as="geometry"/>
                </mxCell>
                <mxCell id="20" value="" style="edgeStyle=none;html=1;" edge="1" parent="1" source="16" target="19">
                    <mxGeometry relative="1" as="geometry"/>
                </mxCell>
                <mxCell id="16" value="return sum" style="whiteSpace=wrap;html=1;" vertex="1" parent="1">
                    <mxGeometry x="-20" y="670" width="120" height="60" as="geometry"/>
                </mxCell>
                <mxCell id="19" value="function end" style="ellipse;whiteSpace=wrap;html=1;" vertex="1" parent="1">
                    <mxGeometry y="800" width="80" height="80" as="geometry"/>
                </mxCell>
            </root>
        </mxGraphModel>
    </diagram>
</mxfile>